#!OML:ASF X:\für Bonn\!DataBase\2005_08_10_Bjorn_Final\c3d\bjorn.ASF
:FULLY-SPECIFIED
:DEGREES
201
root 0.254859 5.78291 20.623 -407.011 -172.078 354.985
lowerback 40.0847 -2.1049 12.2306
upperback 23.7578 -11.5156 5.00827
thorax 7.9401 -10.2988 1.49539
lowerneck 5.60363 -10.5525 12.3987
upperneck 13.5947 -12.3818 0.519398
head 2.73325 -4.94338 -1.84167
rclavicle 3.18055e-015 -9.54166e-015
rhumerus -224.862 -131.176 125.933
rradius 27.8594
rwrist 2.19816
rhand -22.8156 8.41757
rfingers 7.12502
rthumb 3.62115 -21.5314
lclavicle 3.18055e-015 -9.54166e-015
lhumerus -385.352 39.0294 -292.046
lradius 12.3687
lwrist -35.4262
lhand -9.8196 -4.1003
lfingers 7.12502
lthumb 16.1574 25.2463
rfemur 42.5658 -65.6047 -138.601
rtibia 149.935
rfoot -59.8876 42.8051
rtoes -18.2619
lfemur -65.9054 30.3763 5.27971
ltibia 139.803
lfoot -23.9483 -23.1589
ltoes -31.212
202
root 0.278082 5.75657 20.6418 -407.474 -171.921 355.2
lowerback 39.897 -1.94533 12.2502
upperback 23.8023 -11.1186 4.8172
thorax 7.98237 -10.0036 1.15954
lowerneck 5.50828 -10.6507 12.6316
upperneck 13.9387 -12.4516 -0.129399
head 2.80591 -4.95291 -2.10288
rclavicle -8.90555e-014 -1.74931e-013
rhumerus -226.467 -130.453 126.871
rradius 27.4583
rwrist 2.6089
rhand -22.8392 8.21667
rfingers 7.12502
rthumb 3.59836 -21.7327
lclavicle -8.90555e-014 -1.74931e-013
lhumerus -388.8 45.6711 -296.323
lradius 11.3014
lwrist -42.9663
lhand -9.25455 -4.31435
lfingers 7.12502
lthumb 16.7014 24.9872
rfemur 42.1722 -65.2847 -138.021
rtibia 149.975
rfoot -59.7724 42.6352
rtoes -18.4525
lfemur -65.7757 30.1027 5.58438
ltibia 139.716
lfoot -23.7706 -23.4687
ltoes -31.3329
203
root 0.29906 5.73005 20.6619 -407.909 -171.77 355.382
lowerback 39.7243 -1.78248 12.2931
upperback 23.8281 -10.6986 4.62958
thorax 8.0024 -9.69117 0.81603
lowerneck 5.43574 -8.48612 12.9623
upperneck 14.1929 -13.2029 -0.263514
head 2.94288 -6.60014 -2.31524
rclavicle 3.65764e-014 0
rhumerus -228.186 -129.661 128.031
rradius 26.9264
rwrist 3.082
rhand -22.9143 8.2026
rfingers 7.12502
rthumb 3.52591 -21.748
lclavicle 3.65764e-014 0
lhumerus -393.756 52.0152 -302.086
lradius 10.5158
lwrist -50.2813
lhand -9.07371 -4.33155
lfingers 7.12502
lthumb 16.8755 24.9552
rfemur 41.6299 -65.1163 -137.355
rtibia 150.007
rfoot -59.3797 42.7818
rtoes -18.085
lfemur -65.6747 29.8143 5.8216
ltibia 139.614
lfoot -23.4637 -23.856
ltoes -31.2226
204
root 0.318227 5.70604 20.6818 -408.323 -171.608 355.472
lowerback 39.53 -1.5618 12.3144
upperback 23.8854 -10.2263 4.43865
thorax 8.07183 -9.35383 0.456438
lowerneck 5.37482 -8.60341 13.1598
upperneck 14.4928 -13.3149 -0.834965
head 2.99805 -6.65329 -2.54727
rclavicle 1.90833e-014 -6.04305e-014
rhumerus -229.998 -128.838 129.295
rradius 26.3687
rwrist 3.4174
rhand -23.007 8.24743
rfingers 7.12502
rthumb 3.43634 -21.7046
lclavicle 1.90833e-014 -6.04305e-014
lhumerus -394.68 52.4434 -302.576
lradius 9.85732
lwrist -50.6544
lhand -9.58857 -2.94833
lfingers 7.12502
lthumb 16.3798 26.38
rfemur 41.0602 -64.9764 -136.797
rtibia 150.029
rfoot -59.0091 42.9822
rtoes -17.7324
lfemur -65.5372 29.5342 5.959
ltibia 139.508
lfoot -23.1534 -24.2641
ltoes -31.0798
205
root 0.335498 5.6823 20.7027 -408.734 -171.463 355.523
lowerback 39.3646 -1.31984 12.3733
upperback 23.9351 -9.71215 4.26075
thorax 8.13284 -8.99263 0.0858753
lowerneck 5.34414 -8.72227 13.2289
upperneck 14.7707 -13.4403 -1.28625
head 3.05453 -6.71658 -2.71765
rclavicle 7.95139e-016 -3.97569e-014
rhumerus -231.849 -128.129 130.603
rradius 25.813
rwrist 3.56774
rhand -23.1251 8.29864
rfingers 7.12502
rthumb 3.32232 -21.6552
lclavicle 7.95139e-016 -3.97569e-014
lhumerus -395.617 52.7898 -303.07
lradius 9.27715
lwrist -50.6716
lhand -10.4559 -1.54397
lfingers 7.12502
lthumb 15.5446 27.8513
rfemur 40.4653 -64.9016 -136.21
rtibia 150.028
rfoot -58.6531 43.1228
rtoes -17.6504
lfemur -65.3593 29.2964 6.08257
ltibia 139.399
lfoot -22.8202 -24.6799
ltoes -30.8024
206
root 0.351285 5.66064 20.7224 -409.147 -171.353 355.541
lowerback 39.1939 -1.02208 12.4092
upperback 24.014 -9.1738 4.12912
thorax 8.24863 -8.63652 -0.239496
lowerneck 5.30807 -8.81364 13.2267
upperneck 15.0175 -13.524 -1.69827
head 3.10969 -6.76048 -2.86435
rclavicle -3.02153e-014 -1.01778e-013
rhumerus -233.65 -127.446 131.991
rradius 25.1777
rwrist 3.76224
rhand -23.215 8.39396
rfingers 7.12502
rthumb 3.23546 -21.5612
lclavicle -3.02153e-014 -1.01778e-013
lhumerus -396.632 53.1028 -303.635
lradius 8.80252
lwrist -50.2678
lhand -11.4259 -0.352238
lfingers 7.12502
lthumb 14.6102 29.1131
rfemur 39.8207 -64.8631 -135.593
rtibia 150.018
rfoot -58.3049 43.2609
rtoes -17.4266
lfemur -65.101 29.1379 6.23454
ltibia 139.293
lfoot -22.4927 -25.1068
ltoes -30.5047
